<?xml version="1.0" encoding="UTF-8" standalone="no"?>
<svg xmlns:svg="http://www.w3.org/2000/svg" xmlns="http://www.w3.org/2000/svg" version="1.0" width="702" height="174" viewBox="-0.285 -0.553 702 174" id="svg2" xml:space="preserve">
	<defs id="defs4">
	</defs>
	<g transform="matrix(0.9857386,0,0,0.942086,6,6.000373)" id="g6">
		<path d="M 666.148,77.049 L 605.837,77.049 C 608.159,74.297 610.138,71.547 611.755,68.809 L 666.148,68.811 C 671.639,68.811 671.639,77.049 666.148,77.049 M 697.039,51.582 C 702.533,51.582 702.533,43.343 697.039,43.343 L 615.377,43.343 C 616.092,45.257 616.561,47.235 616.775,49.279 C 616.855,50.044 616.902,50.811 616.912,51.583 L 697.039,51.583" style="fill:#f6d800" id="path8"/>
		<path d="M 104.984,77.049 L 4.119,77.049 C -1.373,77.049 -1.373,68.811 4.119,68.811 L 104.437,68.809 C 104.471,71.641 104.658,74.396 104.984,77.049 M 106.107,51.582 C 106.72,48.688 107.492,45.931 108.396,43.343 L 29.588,43.343 C 24.094,43.343 24.094,51.582 29.588,51.582 L 106.107,51.582" style="fill:#f6d800" id="path10"/>
		<path d="M 502.07,0 C 559.47,6.687 599.043,22.519 601.648,48.246 C 606.423,95.45 487.267,154.452 351.81,169.246 C 229.99,182.551 136.478,155.568 115.412,115.664 C 151.738,146.612 230.885,163.586 320.635,155.742 C 440.94,145.226 534.733,94.098 530.127,41.545 C 528.75,25.807 518.701,11.723 502.07,0" style="fill:#344a98" id="path12"/>
		<path d="M 136.379,47.034 L 138.912,47.034 C 142.363,47.034 145.644,47.898 145.644,51.984 C 145.644,56.99 141.097,59.293 136.667,59.293 L 133.788,59.293 L 136.379,47.034 M 132.41,65.62 L 137.07,65.62 C 146.045,65.62 154.045,60.847 154.045,51.12 C 154.045,41.108 143.859,40.705 136.436,40.705 L 129.649,40.705 L 121.129,80.87 L 129.186,80.87 L 132.41,65.62 z M 160.477,72.814 C 160.477,67.808 166.69,67.174 170.43,67.174 L 173.135,67.174 C 171.926,71.951 170.143,75.921 164.389,75.921 C 162.432,75.922 160.477,74.887 160.477,72.814 M 171.119,80.87 L 177.623,80.87 C 178.314,75.289 181.248,63.664 181.248,59.694 C 181.248,52.732 175.666,50.545 169.74,50.545 C 166.287,50.545 162.949,51.179 159.67,52.328 L 158.576,58.486 C 161.625,57.048 164.906,56.184 168.299,56.184 C 171.006,56.184 174.229,57.048 174.229,60.04 C 174.229,60.901 174.229,61.766 173.999,62.571 L 171.294,62.571 C 164.042,62.571 153.11,63.317 153.11,73.101 C 153.11,78.567 156.909,81.559 162.258,81.559 C 166.516,81.559 169.164,79.661 171.813,76.323 L 171.926,76.323 L 171.119,80.87 z M 202.408,56.53 C 206.322,56.53 207.99,60.096 207.99,63.551 C 207.99,69.017 204.652,75.576 199.013,75.576 C 195.216,75.576 194.292,71.549 194.292,68.556 C 194.293,64.125 196.885,56.53 202.408,56.53 M 214.031,37.713 L 210.291,54.746 C 207.875,51.984 204.941,50.545 201.143,50.545 C 191.073,50.545 186.241,60.385 186.241,69.246 C 186.241,75.692 189.405,81.56 196.425,81.56 C 200.913,81.56 203.79,79.72 206.093,76.497 L 206.206,76.497 L 205.458,80.87 L 212.653,80.87 C 212.825,79.375 213.284,76.843 213.745,74.31 L 221.745,37.712 L 214.031,37.712 L 214.031,37.713 z M 229.268,63.146 C 230.764,59.062 232.834,56.184 237.612,56.184 C 240.835,56.184 242.503,57.968 242.503,61.132 C 242.503,61.823 242.444,62.456 242.331,63.146 L 229.268,63.146 M 249.119,68.44 C 249.58,66.253 249.867,64.068 249.867,61.824 C 249.867,54.284 245.033,50.545 237.726,50.545 C 228.001,50.545 220.865,59.406 220.865,68.614 C 220.865,77.418 226.619,81.56 235.138,81.56 C 238.302,81.56 241.581,80.812 244.574,79.892 L 245.553,73.792 C 242.674,75.116 239.625,75.921 236.459,75.921 C 231.166,75.921 228.232,73.907 228.232,68.44 L 249.119,68.44 L 249.119,68.44 z M 252.211,80.87 L 259.922,80.87 L 262.684,67.578 C 263.664,62.803 266.311,57.91 271.776,57.91 C 272.756,57.91 273.848,58.082 274.712,58.37 L 276.323,50.832 C 275.403,50.603 274.366,50.545 273.389,50.545 C 269.821,50.545 266.022,53.595 264.643,56.818 L 264.526,56.818 L 265.563,51.236 L 258.196,51.236 C 257.967,52.617 257.737,53.94 257.507,55.207 L 252.211,80.87 M 305.193,41.799 C 301.914,40.475 298.287,40.015 294.777,40.015 C 287.068,40.015 279.816,43.699 279.816,52.157 C 279.816,62.861 293.511,61.71 293.511,68.96 C 293.511,73.275 289.712,75.231 285.859,75.231 C 282.406,75.231 279.125,73.909 276.017,72.469 L 273.947,79.317 C 277.572,80.641 281.543,81.561 285.398,81.561 C 294.201,81.561 301.914,77.995 301.914,68.155 C 301.914,56.991 288.217,57.393 288.217,50.949 C 288.217,47.495 292.074,46.345 294.949,46.345 C 297.885,46.345 300.933,47.209 303.293,48.417 L 305.193,41.799 M 330.729,62.86 C 330.729,67.52 328.657,75.576 322.211,75.576 C 318.469,75.576 317.148,72.41 317.148,68.614 C 317.148,63.434 320.082,56.53 325.318,56.53 C 328.885,56.53 330.729,59.234 330.729,62.86 M 303.969,92.955 L 311.68,92.955 L 315.076,76.267 L 315.191,76.267 C 316.455,80.411 319.966,81.561 323.361,81.561 C 333.662,81.561 338.783,71.837 338.783,62.573 C 338.783,55.553 335.273,50.546 327.908,50.546 C 323.994,50.546 321.232,51.985 318.988,55.15 L 318.873,55.15 L 319.736,51.238 L 312.427,51.238 C 312.314,52.504 312.083,53.654 311.794,55.092 L 303.969,92.955 z M 341.703,80.87 L 349.414,80.87 L 352.176,67.578 C 353.156,62.803 355.803,57.91 361.268,57.91 C 362.247,57.91 363.34,58.082 364.204,58.37 L 365.817,50.832 C 364.895,50.603 363.858,50.545 362.879,50.545 C 359.313,50.545 355.514,53.595 354.135,56.818 L 354.018,56.818 L 355.053,51.236 L 347.688,51.236 C 347.458,52.617 347.229,53.94 346.999,55.207 L 341.703,80.87 M 371.609,45.826 L 379.322,45.826 L 380.931,38.461 L 373.22,38.461 L 371.609,45.826 M 364.072,80.87 L 371.783,80.87 L 378.111,51.236 L 370.402,51.236 L 364.072,80.87 z M 380.053,80.87 L 387.764,80.87 L 390.928,65.967 C 391.907,61.537 393.862,56.53 399.213,56.53 C 401.688,56.53 403.414,58.198 403.414,60.672 C 403.414,62.86 402.953,64.873 402.553,66.889 L 399.674,80.87 L 407.385,80.87 L 410.492,66.484 C 410.896,64.642 411.471,62.284 411.471,60.041 C 411.471,54.17 407.616,50.545 401.803,50.545 C 398.467,50.545 395.532,52.156 393.403,54.112 L 393.288,54.112 L 393.808,51.236 L 386.267,51.236 C 386.154,52.156 385.865,53.711 385.519,55.494 L 380.053,80.87 M 417.037,56.875 L 422.619,56.875 L 420.433,66.889 C 419.915,69.246 419.454,71.491 419.454,73.793 C 419.454,79.49 423.138,81.561 428.372,81.561 C 429.696,81.561 431.192,81.159 432.517,80.871 L 433.841,74.888 C 432.862,75.29 431.482,75.577 430.099,75.577 C 428.372,75.577 427.165,74.483 427.165,72.701 C 427.165,71.55 427.339,70.513 427.511,69.823 L 430.329,56.876 L 437.235,56.876 L 438.442,51.237 L 431.538,51.237 L 433.436,42.433 L 425.151,45.137 L 423.829,51.237 L 418.245,51.237 L 417.037,56.875 M 446.6,63.146 C 448.096,59.062 450.168,56.184 454.944,56.184 C 458.167,56.184 459.837,57.968 459.837,61.132 C 459.837,61.823 459.778,62.456 459.663,63.146 L 446.6,63.146 M 466.451,68.44 C 466.914,66.253 467.199,64.068 467.199,61.824 C 467.199,54.284 462.365,50.545 455.058,50.545 C 445.333,50.545 438.197,59.406 438.197,68.614 C 438.197,77.418 443.953,81.56 452.468,81.56 C 455.634,81.56 458.913,80.812 461.907,79.892 L 462.884,73.792 C 460.007,75.116 456.956,75.921 453.79,75.921 C 448.497,75.921 445.563,73.907 445.563,68.44 L 466.451,68.44 L 466.451,68.44 z M 469.543,80.87 L 477.256,80.87 L 480.018,67.578 C 480.997,62.803 483.643,57.91 489.11,57.91 C 490.089,57.91 491.182,58.082 492.044,58.37 L 493.657,50.832 C 492.735,50.603 491.698,50.545 490.721,50.545 C 487.153,50.545 483.356,53.595 481.975,56.818 L 481.858,56.818 L 482.895,51.236 L 475.53,51.236 C 475.3,52.617 475.069,53.94 474.839,55.207 L 469.543,80.87" style="fill:#344a98;fill-rule:evenodd" id="path14"/>
	</g>
</svg>